<svg id="clog-logo-svg" data-name="clog-logo-svg" xmlns="http://www.w3.org/2000/svg"
    viewBox="0 0 513.13 513.16">
    <defs>
        <style>path{fill: #fff;}</style>
    </defs>
    <path
        d="M460.8,102a3,3,0,0,1-.2.91c-.67,1.12-1.36,2.23-2.08,3.31l-27,40.6c-.8,1.21-1.56,2.44-2.33,3.67a1.64,1.64,0,0,0-.06,1.66c.4.77.83,1.53,1.27,2.28a200.08,200.08,0,0,1,21.73,52.48c.11.42.2.84.3,1.27a2.71,2.71,0,0,0,2.26,2.31c3.27.65,6.53,1.38,9.79,2l40.95,8.2c1.14.23,2.26.55,3.4.73a2.5,2.5,0,0,1,2.22,2.32c.71,4.44,1.46,8.87,2,13.33a176,176,0,0,1,.92,28.67,137.15,137.15,0,0,1-2.53,22c-.14.71-.29,1.41-.48,2.11a2.26,2.26,0,0,1-1.77,1.73c-1.13.26-2.27.47-3.4.7l-46.05,9.28c-1.85.37-3.7.75-5.53,1.17a2.13,2.13,0,0,0-1.53,1.42c-.24.68-.4,1.39-.58,2.09a200.91,200.91,0,0,1-21.73,52.48c-.45.75-.87,1.51-1.28,2.28a1.58,1.58,0,0,0,.05,1.65c.76,1.23,1.55,2.45,2.35,3.66l26.5,39.86c.24.36.49.72.72,1.09,2.61,4.06,2.79,3.19,0,7.14a176.9,176.9,0,0,1-39.5,40.76c-2,1.47-4.07,2.77-6.12,4.15a2,2,0,0,1-2.42-.07l-3.28-2.14q-20.66-13.74-41.31-27.46c-3.58-2.38-2.91-2.34-6.51-.22A201.32,201.32,0,0,1,308,450.94c-.85.22-1.7.4-2.53.65a2.36,2.36,0,0,0-1.69,1.81c-.18.71-.3,1.42-.45,2.13Q298.18,481.12,293,506.7c-.57,2.84-.86,3.07-3.57,3.55-5,.88-10,1.57-15.07,2.11a183.07,183.07,0,0,1-24.78.67,138.71,138.71,0,0,1-22.89-2.52,24.3,24.3,0,0,1-2.93-.78,1.7,1.7,0,0,1-1.11-1.25c-.28-1.13-.54-2.26-.77-3.39q-4.08-20.26-8.14-40.52c-.75-3.69-1.52-7.38-2.28-11.07a2.54,2.54,0,0,0-2-2c-4.74-1.35-9.52-2.57-14.21-4.08A197.68,197.68,0,0,1,156.44,430c-4.73-2.76-3.42-2.85-8,.17q-20.33,13.46-40.6,27a27.1,27.1,0,0,0-2.52,1.7c-1.51,1.27-2.8.91-4.29-.13a178.71,178.71,0,0,1-21-16.9,171.47,171.47,0,0,1-21.91-24.71c-1.19-1.65-2.27-3.37-3.35-5.08a1.82,1.82,0,0,1,0-2.06c.78-1.22,1.56-2.44,2.36-3.65L83.7,366.4c.72-1.08,1.42-2.18,2.13-3.28a2.12,2.12,0,0,0,.12-2.44c-.53-.86-1-1.76-1.52-2.63a199.48,199.48,0,0,1-21.07-50.89c-1.17-4.49-1-4.15-5.29-5-12.51-2.49-25-5.05-37.52-7.57L6.9,291.85q-.42-.09-.84-.21a2.26,2.26,0,0,1-1.75-1.74q-.61-3-1.11-6a185.83,185.83,0,0,1-1.69-41.22,118.9,118.9,0,0,1,2.43-18.1c.09-.42.16-.86.29-1.27A2.28,2.28,0,0,1,6,221.56c1.41-.3,2.83-.62,4.25-.91q24.32-4.89,48.62-9.77c.85-.17,1.68-.43,2.51-.67A1.73,1.73,0,0,0,62.5,209c.27-.82.5-1.66.72-2.5a200,200,0,0,1,21.39-51.69c.51-.88,1-1.76,1.49-2.66a1.56,1.56,0,0,0,0-1.64c-.84-1.36-1.69-2.71-2.57-4L57.24,107c-.48-.72-1-1.45-1.43-2.18-1.7-2.61-1.72-2.63.16-5.36A178.22,178.22,0,0,1,96,58c1.86-1.39,3.84-2.61,5.75-3.93a2.56,2.56,0,0,1,3.21.1c1.08.75,2.18,1.44,3.27,2.16L149.14,83.5c3.62,2.4,2.89,2.31,6.5.18a199.13,199.13,0,0,1,52.08-21.55c.7-.18,1.39-.42,2.09-.6a2.23,2.23,0,0,0,1.66-1.81c.18-.7.35-1.41.49-2.12,3.26-16.21,6.45-32.42,9.8-48.61,1.33-6.46.1-5.36,6.67-6.53A165.83,165.83,0,0,1,260.05,0a161.74,161.74,0,0,1,20.4,1.31c3.44.49,6.86,1.17,10.28,1.79a2.39,2.39,0,0,1,2,2q1.39,6.81,2.77,13.64,4,19.83,8,39.66c.09.42.18.85.29,1.27a2.32,2.32,0,0,0,1.68,1.81c.7.19,1.39.42,2.09.6a199.17,199.17,0,0,1,52.09,21.54c3.61,2.14,2.95,2.19,6.5-.17l41.68-27.69c1.09-.72,2.18-1.44,3.3-2.11a1.62,1.62,0,0,1,1.66,0c.76.43,1.51.88,2.22,1.37a177.5,177.5,0,0,1,41.67,40.42c1.3,1.74,2.45,3.59,3.65,5.41A7.54,7.54,0,0,1,460.8,102Zm-203-9.63c-90.76-.31-164.28,73.75-164.44,164C93.21,346,165.86,420.63,257.25,420.85c91.2.21,164.41-73.8,164.66-163.77C422.16,166.18,348.28,92.21,257.81,92.36Z"
        transform="translate(-1.08)" />
    <path
        d="M381.13,256.37c0,.35,0,.49,0,.64,0,1.36-.42,1.93-1.57,2.27-.69.21-1.39.38-2.1.54L320.68,272.9c-6.22,1.43-12.45,2.79-18.64,4.33-11.46,2.84-19.55,9.75-24.27,20.57a36.21,36.21,0,0,0-2.12,7.07q-7.06,33.61-14.13,67.24c-.42,2-.9,3.95-1.41,5.92a1.33,1.33,0,0,1-1.28,1c-.72,0-1.45.05-2.17,0a1.65,1.65,0,0,1-1.61-1.21c-.38-1.55-.76-3.1-1.08-4.66q-7.11-33.82-14.22-67.67a41.43,41.43,0,0,0-1.86-6.69c-4.49-11.3-12.68-18.54-24.46-21.52-7.44-1.89-15-3.5-22.45-5.22l-53.39-12.29a21.11,21.11,0,0,1-2.5-.73,1.42,1.42,0,0,1-1-1.32,13.09,13.09,0,0,1,.11-2.58,1.62,1.62,0,0,1,.76-1,6.17,6.17,0,0,1,1.64-.53l22.46-5.2,53.39-12.29a35.12,35.12,0,0,0,17.68-9.68A33.18,33.18,0,0,0,239,210.75c1.28-5.36,2.34-10.77,3.48-16.16l12-57c.09-.43.15-.86.25-1.29.45-1.92,1.14-2.34,3.54-2.2a2,2,0,0,1,1.94,1.44c.2.7.37,1.4.52,2.11q1.68,7.86,3.34,15.74,5.76,27.45,11.51,54.9a35.56,35.56,0,0,0,9.53,18.24,33.48,33.48,0,0,0,15.19,8.95c3.35.91,6.75,1.67,10.14,2.45L376.18,253c1.13.26,2.26.54,3.38.83a1.89,1.89,0,0,1,1.53,1.85C381.12,256,381.13,256.28,381.13,256.37Z"
        transform="translate(-1.08)" />
    <path
        d="M238.88,399.72A142.47,142.47,0,0,1,224,397a144.89,144.89,0,0,1-104.67-99.05,150.49,150.49,0,0,1-4.59-20.78,17.27,17.27,0,0,1-.11-2.16,1.2,1.2,0,0,1,1.47-1.14c.15,0,.3,0,.44.05l16.92,3.94c.29.06.56.15.85.21a2.19,2.19,0,0,1,1.71,1.76c.64,2.67,1.19,5.38,1.87,8A124.16,124.16,0,0,0,229,377c2.12.5,4.25.91,6.37,1.39a1.7,1.7,0,0,1,1.21,1.14,12.22,12.22,0,0,1,.51,1.66q1.71,8.08,3.39,16.17a10.7,10.7,0,0,1,.1,1.28c0,.31-.46.94-.74,1Z"
        transform="translate(-1.08)" />
    <path
        d="M400.78,275.83c-.58,3.27-1.12,7-1.91,10.68A144.8,144.8,0,0,1,295.13,396a153,153,0,0,1-17.88,3.62c-.42.06-.86.06-1.29.08a1.26,1.26,0,0,1-1.21-1.45c.05-.43.07-.87.16-1.29q1.69-8.08,3.41-16.16a6.55,6.55,0,0,1,.4-1.23,1.86,1.86,0,0,1,1.23-1.15c1.4-.35,2.82-.64,4.24-.95A124.07,124.07,0,0,0,378,285.75c.52-2.11.95-4.24,1.44-6.35a1.65,1.65,0,0,1,1.15-1.2c.83-.27,1.67-.5,2.51-.7l15.25-3.5a11.06,11.06,0,0,1,1.29-.14,1.12,1.12,0,0,1,1.1,1.08C400.71,275.08,400.73,275.23,400.78,275.83Z"
        transform="translate(-1.08)" />
    <path
        d="M276.73,113.47c2.15.34,4.74.67,7.3,1.16A142.06,142.06,0,0,1,351.48,147c25.34,21.92,41.38,49.35,47.88,82.27.5,2.56.91,5.14,1.31,7.72a5.24,5.24,0,0,1-.06,1.72.88.88,0,0,1-.6.52,3.45,3.45,0,0,1-1.28-.05q-8.7-2-17.39-4a3.91,3.91,0,0,1-.81-.29,1.92,1.92,0,0,1-1.15-1.23c-.36-1.4-.65-2.83-1-4.24A124,124,0,0,0,285.69,136c-1.7-.39-3.4-.77-5.1-1.12a2.66,2.66,0,0,1-2.24-2.33c-1.15-5.53-2.33-11.06-3.48-16.6a9.25,9.25,0,0,1-.1-1.3,1.15,1.15,0,0,1,1.09-1.11C276,113.57,276.14,113.54,276.73,113.47Z"
        transform="translate(-1.08)" />
    <path
        d="M117,239.14c-.57.07-1,.11-1.42.18a1,1,0,0,1-.92-.74,18.59,18.59,0,0,1,.08-2.59A144.51,144.51,0,0,1,219,117.49a159.19,159.19,0,0,1,17.42-3.72,26.4,26.4,0,0,1,3.45-.15c.29,0,.76.64.73.95s0,.87-.12,1.29q-1.68,8.08-3.38,16.16a6.65,6.65,0,0,1-.54,1.65,1.77,1.77,0,0,1-.87.88,24.72,24.72,0,0,1-2.93.76,121.69,121.69,0,0,0-54.23,26.21c-21.95,18.44-35.93,41.76-42.06,69.77-.15.71-.25,1.43-.43,2.13a2.38,2.38,0,0,1-1.77,1.74l-.41.12Z"
        transform="translate(-1.08)" />
    <path
        d="M229.53,346c.06,1.12-.48,1.64-.81,1.56a18.77,18.77,0,0,1-2.09-.52A95.93,95.93,0,0,1,169,292.61a18.92,18.92,0,0,1-1.1-2.84c-.27-1.18-1.37-2.26-.55-3.61,1.17-.55,2.27,0,3.37.25l17,3.89c.71.16,1.41.35,2.1.55a2.75,2.75,0,0,1,1.67,1.3c.44.75.88,1.5,1.33,2.25a75.35,75.35,0,0,0,28.95,28.15c3.54,2,3.19,1.2,4.13,5.5,1.11,5.09,2.17,10.2,3.23,15.31C229.32,344.49,229.47,345.64,229.53,346Z"
        transform="translate(-1.08)" />
    <path
        d="M348.23,226.82a2.54,2.54,0,0,1-.63.44,1.92,1.92,0,0,1-.86,0c-6.91-1.6-13.81-3.21-20.73-4.78a3.39,3.39,0,0,1-2.36-1.72c-.43-.75-.86-1.51-1.3-2.26a75.5,75.5,0,0,0-28.66-27.79c-.76-.42-1.51-.85-2.28-1.26a2.69,2.69,0,0,1-1.34-1.63,11,11,0,0,1-.36-1.24q-1.87-8.92-3.72-17.86a17,17,0,0,1-.29-2.57c0-.17.37-.47.6-.5a3.21,3.21,0,0,1,1.27.11c1.11.33,2.22.67,3.29,1.09q40,15.61,56.08,55.41c.49,1.21.88,2.45,1.27,3.69A2.85,2.85,0,0,1,348.23,226.82Z"
        transform="translate(-1.08)" />
    <path
        d="M229.57,166.9a4.44,4.44,0,0,1-.12,1q-1.94,9.34-3.91,18.69a7.36,7.36,0,0,1-.52,1.65,2.47,2.47,0,0,1-.82,1c-.72.48-1.49.88-2.26,1.3a75.19,75.19,0,0,0-29.22,28.38c-2.26,3.84-1.43,3.07-5.57,4.1-5.75,1.42-11.56,2.65-17.34,4-.56.13-1.13.25-1.7.35a1,1,0,0,1-1-1.41c.25-.82.51-1.66.81-2.47a96.28,96.28,0,0,1,58.59-57.31c.68-.23,1.4-.37,2.1-.54C228.93,165.47,229.57,165.87,229.57,166.9Z"
        transform="translate(-1.08)" />
    <path
        d="M346.56,286c1.41-.07,1.85.54,1.67,1.14s-.38,1.4-.63,2.08a95.94,95.94,0,0,1-59.21,57.95c-.55.18-1.11.3-1.68.43s-1.11-.55-1-1.09c.18-1.15.32-2.3.56-3.43q1.63-7.87,3.33-15.74a11.31,11.31,0,0,1,.57-2.09,3.39,3.39,0,0,1,1-1.33,30,30,0,0,1,2.64-1.51,75.46,75.46,0,0,0,28.63-27.89c2-3.42,1.48-3.42,5.88-4.38,5.52-1.21,11-2.54,16.52-3.81C345.68,286.14,346.53,286,346.56,286Z"
        transform="translate(-1.08)" />
</svg>