<svg id="helm-icon" data-name="helm-icon" xmlns="http://www.w3.org/2000/svg" viewBox="0 0 1080 984.9">
    <defs>
        <style>.cls-1{fill:#fff;}</style>
    </defs>
    <path class="cls-1"
        d="M255.69,414.08q-5-19-9.89-38c-1.2-4.59-2.39-9.17-3.68-13.73a9,9,0,0,1,.84-7.25c2.17-3.89,4.16-7.89,6.37-11.76a507.45,507.45,0,0,1,37.23-55.54c25.72-33.81,54.38-65,85.13-94.26Q397.45,169,425,146.43c.86-.71,1.76-1.37,2.58-2.13a18.13,18.13,0,0,1,11.14-5.07c5.26-.49,10.45-1.68,15.68-2.5a11.85,11.85,0,0,1,3.31.06,1.85,1.85,0,0,1,1.18,1,6.59,6.59,0,0,1,.57,2.39c.1,3.06.12,6.13.12,9.2q0,108.33,0,216.66c0,3,.16,6.11.29,9.17a1.77,1.77,0,0,0,2.52,1.22,13.35,13.35,0,0,0,1.36-1c6.32-5.48,12.6-11,18.93-16.47a7.59,7.59,0,0,0,3-6.55c-.13-2.23,0-4.46,0-6.69q0-106.24,0-212.48c0-3.07-.07-6.13-.19-9.19a3.09,3.09,0,0,0-1.73-2.69c-2.5-1.22-5.06-2.31-7.59-3.48q-4.17-1.91-8.31-3.87c-.66-.31-.67-1.7,0-2.19a31.76,31.76,0,0,1,2.67-2q33.39-20.75,66.81-41.43c.95-.59,1.94-1.11,2.91-1.65a3.27,3.27,0,0,1,3.19-.05c1.23.65,2.44,1.36,3.62,2.09q32.7,20.27,65.39,40.55c1.18.73,2.32,1.53,3.46,2.33a1.67,1.67,0,0,1-.47,2.75c-2.28,1.05-4.58,2.05-6.87,3.06-2.8,1.25-5.62,2.46-8.4,3.73a2.91,2.91,0,0,0-1.81,2.59c-.12,3.06-.22,6.13-.22,9.19q0,80.73,0,161.45,0,26.36,0,52.7c0,2.51.07,5,.14,7.53a3.94,3.94,0,0,0,1.4,2.93Q610.28,367,621,376.23a1.66,1.66,0,0,0,2.5-1.13,15.52,15.52,0,0,0,.26-1.64c.06-1.4.09-2.79.09-4.19,0-2.51,0-5,0-7.52q0-106.24,0-212.48c0-3.34.1-6.69.25-10a2.7,2.7,0,0,1,3.41-2.68Q638.31,138.2,649,140a8.39,8.39,0,0,1,3,1.3c1.39.92,2.67,2,4,3.07,38.71,31.65,75,65.83,108.09,103.37a650.18,650.18,0,0,1,57.48,74.93c5.94,9.11,11.54,18.42,16.7,28,.8,1.47,1.49,3,2.32,4.45a8.94,8.94,0,0,1,.78,7.22c-2.91,10.47-5.62,21-8.37,31.51-.42,1.62-.71,3.27-1.06,4.9a2.14,2.14,0,0,0-.75,2.13c-.63,2.43-1.33,4.84-1.86,7.29-.22,1-.37,2.15.66,3,.81.66,2.2,0,3.34-1.64q.72-1,1.38-2.1c.73-1.18,1.44-2.38,2.16-3.58l30.5-51Q970.5,180.61,1073.6,8.36c1.43-2.39,3-4.73,4.51-7a1.76,1.76,0,0,1,1.37-.73c.42.06.85.65,1.09,1.11a4.33,4.33,0,0,1,.39,1.61c.12,1.39.2,2.78.25,4.17,1.43,38.74,2.49,77.49,1.62,116.26-.24,10.59-.78,21.18-1.07,31.77a11.73,11.73,0,0,1-2.48,6.93q-8.27,11.07-16.44,22.18-52.51,70.94-105,141.87c-1.81,2.46-3.5,5-5.14,7.59a1.89,1.89,0,0,0,.5,2.26,2.3,2.3,0,0,0,3,.3c1.77-1.77,3.56-3.52,5.24-5.38q28-31.08,56-62.19,27.15-30.15,54.29-60.31c1.67-1.86,3.43-3.65,5.24-5.38a1.62,1.62,0,0,1,1.49-.06,2.11,2.11,0,0,1,.75,1.32,5.44,5.44,0,0,1,0,1.66c-1.15,14.74-2.55,29.45-4.44,44.1-2.93,22.69-6.85,45.2-12,67.5-.31,1.36-.76,2.69-1.07,4a8.26,8.26,0,0,1-2.56,4.23q-2.13,2-4.29,4l-104,95.78c-1.85,1.7-3.64,3.45-5.41,5.22a2.34,2.34,0,0,0,.51,3.6,2.18,2.18,0,0,0,1.5.42,7.16,7.16,0,0,0,2.26-1c2.1-1.38,4.15-2.82,6.22-4.24q43-29.7,86.06-59.39c2.06-1.42,4.2-2.73,6.32-4a.85.85,0,0,1,.8.06c.28.42.66,1,.59,1.39a30.66,30.66,0,0,1-1,4,464,464,0,0,1-21.42,52.65c-7.16,15.12-15,29.92-23.14,44.51-2,3.64-4.54,7-6.75,10.57a20.34,20.34,0,0,1-7.3,6.7C979,492.86,968,499.47,957,506q-24.08,14.34-48.15,28.67c-2.15,1.28-4.26,2.64-6.37,4a2.42,2.42,0,0,0-.63,3,2.62,2.62,0,0,0,2.8,1.35c2.41-.68,4.82-1.36,7.19-2.17q25.69-8.82,51.39-17.68c3.42-1.17,6.89-2.21,10.36-3.22.39-.11,1,.32,1.42.59.11.07,0,.56-.07.8a24,24,0,0,1-1.56,2.92c-1.57,2.3-3.2,4.57-4.84,6.82q-16.26,22.33-34.58,43A784.57,784.57,0,0,1,850.58,655c-12.51,10.55-10.13,5.32-10.23,21.47-.16,24.26,0,48.53-.06,72.79a83.29,83.29,0,0,0,3.82,25.53,84.94,84.94,0,0,0,7,16.06q6.54,11.68,13.12,23.33,1.85,3.28,3.6,6.61c.83,1.59.61,2.77-.71,3.64-2.33,1.53-4.67,3-7,4.5l-56.37,34.48q-96,58.68-192,117.35c-2.37,1.45-4.85,2.7-7.29,4-.61.33-1.8-.38-1.91-1.13a49,49,0,0,1-.59-5c-.26-8.08-.41-16.17-.66-24.25q-1.32-43.9-2.69-87.8c-.06-1.95-.15-3.9-.2-5.85-.77-27.88-1.48-55.75-2.31-83.63-.79-27-1.7-54.07-2.57-81.1,0-1.4-.1-2.79-.14-4.18q-1.15-42.24-2.31-84.47c-.46-15.89-1-31.77-1.47-47.66-.08-2.5.1-5,.21-7.5a2.56,2.56,0,0,1,2.23-2.11c2.78-.12,5.57-.27,8.35-.27,32.62,0,65.25,0,97.88,0,12,0,8.8,1.46,18.84-6.63,24.59-19.79,41.61-44.77,50.49-75.16,1.17-4,2.41-8,2.64-12.23A2.55,2.55,0,0,0,768,453c-3.06-.12-6.12-.23-9.19-.23H616.57c-2.79,0-5.57-.06-8.36-.15a2,2,0,0,1-2-2.73c.43-1.62,1.05-3.19,1.37-4.83,1.75-9.14-.51-17.15-7.09-23.79a43.93,43.93,0,0,0-5.28-4.05,1.82,1.82,0,0,0-2.26.32c-1.53,2.32-3.12,4.61-4.56,7q-20.52,34-41,68.06c-1.44,2.38-3,4.67-4.57,7a1.47,1.47,0,0,1-2.15-.14c-1.1-1.61-2.22-3.19-3.23-4.86q-21.39-35.44-42.77-70.9c-1.29-2.14-2.74-4.18-4.21-6.2a2,2,0,0,0-1.5-.36,3.62,3.62,0,0,0-1.52.63c-9.81,6.59-14,17.2-10.92,29.23.35,1.33.68,2.67,1,4a1,1,0,0,1-.8,1.27,13.83,13.83,0,0,1-2.43.45c-2.78.07-5.57.06-8.36.06H324.51c-3.06,0-6.12.17-9.18.29a2.85,2.85,0,0,0-1.94,2.4,74.05,74.05,0,0,0,1.14,7.41A144.59,144.59,0,0,0,342,518.69a154.24,154.24,0,0,0,30,28.94,10.79,10.79,0,0,0,7,2.26c2.23-.06,4.46,0,6.69,0h96.2c2.79,0,5.58,0,8.37.1s3.88,1.2,3.83,4.25c-.1,6.69-.3,13.38-.5,20.07-.11,3.62-.37,7.24-.47,10.87-.79,27.59-1.5,55.19-2.32,82.79s-1.73,55.18-2.6,82.78c0,1.39-.1,2.78-.14,4.18-.79,28.71-1.53,57.42-2.38,86.13-.78,26.48-1.69,53-2.51,79.44-.26,8.36-.39,16.72-.65,25.09q-.53,17.13-1.16,34.27a31.69,31.69,0,0,1-.55,4.11,1,1,0,0,1-1.27.82,9.2,9.2,0,0,1-2.33-.75c-2.41-1.39-4.79-2.86-7.16-4.31l-246.92-151c-2.14-1.31-4.27-2.63-6.36-4-1.71-1.12-2-2.33-.89-4.3,4.73-8.54,9.51-17.05,14.26-25.57,1.49-2.68,3.07-5.32,4.42-8.06a79.94,79.94,0,0,0,8.74-35.43c.09-27.6,0-55.21.1-82.82,0-3.32-.73-5.94-3.55-7.94-2.27-1.61-4.32-3.53-6.46-5.32C199.52,627,168,596.25,139.58,562.42c-10.05-12-19.64-24.28-28.62-37.07A35.69,35.69,0,0,1,108.6,521a.78.78,0,0,1,.17-.67c.18-.19.52-.42.73-.36,2.41.62,4.85,1.16,7.21,2,18.19,6.22,36.37,12.51,54.56,18.74a77.62,77.62,0,0,0,8,2.28c.61.14,1.56-.46,2.11-1a2.32,2.32,0,0,0-.25-3c-1.57-1.13-3.14-2.29-4.8-3.28Q150.12,520,123.88,504.43c-10.06-6-20.08-12-30.19-17.95a21.44,21.44,0,0,1-7.83-7.33c-2.32-3.8-4.92-7.44-7.09-11.33-13.19-23.63-25.45-47.73-35.43-72.92-3-7.51-5.63-15.15-8.41-22.74A14.54,14.54,0,0,1,34,369a5,5,0,0,1,.48-2.31,2.52,2.52,0,0,1,1.52.24c1.9,1.17,3.76,2.4,5.59,3.67Q85,400.49,128.36,430.43c2.3,1.58,4.64,3.08,7,4.59a2.19,2.19,0,0,0,2.86-.91c.33-.67.64-1.83.3-2.26a34.85,34.85,0,0,0-4-4.24q-16-14.76-32-29.48Q65.91,364.41,29.3,330.68c-7.16-6.61-6.67-4.84-9-15.28A636.52,636.52,0,0,1,8.76,248.69c-1.57-13.57-2.89-27.17-4.31-40.76a20.58,20.58,0,0,1-.07-3.33,1.77,1.77,0,0,1,.73-1.29,1.63,1.63,0,0,1,1.51.08c1.81,1.73,3.58,3.51,5.25,5.36q33.32,37,66.6,74,22.38,24.88,44.77,49.75a53.51,53.51,0,0,0,4.12,4.13,2,2,0,0,0,2.32.3c1-.53,1.75-2,1.25-2.74-1.35-2.1-2.67-4.23-4.15-6.24Q101.67,294,76.52,260,42.19,213.64,7.83,167.25c-1-1.35-1.91-2.76-3-4a12.77,12.77,0,0,1-3.06-8.43C1.56,145.87,1,137,.84,128c-.47-27.33-.48-54.66.18-82C1.38,31.28,2.1,16.52,2.66,1.75c0-1.07.88-2,1.4-1.68A6.05,6.05,0,0,1,5.38,1,16.4,16.4,0,0,1,6.79,3.08c.73,1.19,1.42,2.4,2.14,3.59l238.86,399c1.43,2.39,2.91,4.75,4.37,7.11a.7.7,0,0,0,.66.94,2.58,2.58,0,0,0,.52.89c.07,1.7,1.2,2.92,2.07,4.23.18.28.88.27,1.34.29.1,0,.33-.43.31-.64C256.93,416.94,257,415.31,255.69,414.08ZM827.82,414c-.52,1.46-1.06,2.92-1.53,4.39a.72.72,0,0,0,.77,1,1.14,1.14,0,0,0,.7-.3,8.71,8.71,0,0,0,2.63-4.7c.28-.71.52-1.44.85-2.13s.13-.92-.33-1.34a1.26,1.26,0,0,0-1.85.24C828.58,412.1,828.23,413.07,827.82,414Z" />
</svg>